<?xml version="1.0" encoding="utf-8"?>
<svg version="1.1" xmlns="http://www.w3.org/2000/svg" viewBox="0 0 20 20">
  <style type="text/css">
    .st0 {
      fill: none;
      stroke: #000000;
      stroke-linecap: round;
      stroke-linejoin: round;
      stroke-miterlimit: 10;
    }
  </style>
  <g>
    <path vector-effect="non-scaling-stroke" class="st0"
      d="M14.1,17c-.2,0-.3-.1-.3-.3v-4.4c0-1.6-.8-1.6-1.1-1.6-.9,0-1.3.5-1.3,1.6v4.4c0,.2-.1.3-.3.3h-2.5c-.2,0-.3-.1-.3-.3v-8.3c0-.2.1-.3.3-.3h2.5c.2,0,.3.1.3.3v.3h.1c.6-.6,1.3-.9,2.1-.9s1.8.3,2.4.9c.6.6.9,1.6.9,2.7v5.3c0,.2-.1.3-.3.3h-2.6Z" />
    <rect vector-effect="non-scaling-stroke" class="st0" x="3.2" y="8.1" width="3.2" height="8.9" rx=".3" ry=".3" />
    <path vector-effect="non-scaling-stroke" class="st0"
      d="M4.8,6.6c-1,0-1.8-.8-1.8-1.8s.8-1.8,1.8-1.8,1.8.8,1.8,1.8-.8,1.8-1.8,1.8h0Z" />
  </g>
</svg>