<?xml version="1.0" encoding="utf-8"?>
<svg version="1.1" xmlns="http://www.w3.org/2000/svg" viewBox="0 0 20 20">
  <style type="text/css">
    .st0 {
      fill: none;
      stroke: #000000;
      stroke-linecap: round;
      stroke-linejoin: round;
      stroke-miterlimit: 10;
    }
  </style>
  <path vector-effect="non-scaling-stroke" class="st0"
    d="M2.5,5.4c0,6.7,5.4,12.1,12.1,12.1c0.6,0,1.1,0,1.6-0.1
	c0.8-0.1,1.3-0.8,1.3-1.5v-2.1c0-0.7-0.5-1.4-1.1-1.6l-2.6-0.9c-0.7-0.2-1.4,0.2-1.6,0.9c-0.2,0.9-1.4,1.2-2,0.6l-2.9-3
	C6.6,9.1,7,8,7.9,7.8C8.6,7.6,9,6.9,8.8,6.2L7.9,3.6C7.6,3,7,2.5,6.3,2.5H4.2C3.4,2.5,2.8,3,2.7,3.8C2.5,4.3,2.5,4.9,2.5,5.4z" />
</svg>